<svg xmlns="http://www.w3.org/2000/svg" width="79.456" height="104.891" viewBox="0 0 79.456 104.891">
  <g id="tools-and-utensils" transform="translate(-62.077)">
    <path id="Path_1" data-name="Path 1" d="M132.151,289.048v-27.2h8.936v-7.262H76.459v40.067a9.722,9.722,0,0,0,9.722,9.722h45.183a9.722,9.722,0,0,0,9.722-9.722v-5.6h-8.936Zm-23.378-5.592a7.563,7.563,0,1,1,7.563-7.563A7.563,7.563,0,0,1,108.773,283.456Z" transform="translate(-11.436 -202.427)" fill="#878cc5"/>
    <g id="Group_9935" data-name="Group 9935" transform="translate(62.077)">
      <path id="Path_2" data-name="Path 2" d="M138.587,247.462H132.6v-4.315a2.946,2.946,0,0,0-2.946-2.946H65.023a2.946,2.946,0,0,0-2.946,2.946v40.067a12.683,12.683,0,0,0,12.669,12.669h45.183A12.683,12.683,0,0,0,132.6,283.214v-5.6a2.946,2.946,0,0,0-2.946-2.946h-5.989v-7.709H135.64v5.114a2.946,2.946,0,0,0,5.893,0V250.408A2.946,2.946,0,0,0,138.587,247.462Zm-11.883,33.1v2.655a6.784,6.784,0,0,1-6.776,6.776H74.746a6.783,6.783,0,0,1-6.776-6.776v-37.12H126.7v1.369h-5.989a2.946,2.946,0,0,0-2.946,2.946v27.2a2.946,2.946,0,0,0,2.946,2.946H126.7Zm-3.043-19.495v-7.709H135.64v7.709Z" transform="translate(-62.077 -190.992)" fill="#3f4698"/>
      <path id="Path_3" data-name="Path 3" d="M193.4,307.309a10.508,10.508,0,0,0-2.947,20.595v4.943a2.946,2.946,0,0,0,5.893,0V327.9a10.508,10.508,0,0,0-2.946-20.595Zm0,15.125a4.616,4.616,0,1,1,4.616-4.616A4.621,4.621,0,0,1,193.4,322.434Z" transform="translate(-158.142 -244.352)" fill="#3f4698"/>
      <path id="Path_4" data-name="Path 4" d="M163.329,43.612a2.946,2.946,0,0,1-2.946-2.946V23.572a17.679,17.679,0,0,0-35.358,0V40.665a2.946,2.946,0,0,1-5.893,0V23.572a23.572,23.572,0,1,1,47.143,0V40.665A2.946,2.946,0,0,1,163.329,43.612Z" transform="translate(-107.443)" fill="#3f4698"/>
    </g>
  </g>
</svg>
